<?xml version="1.0" encoding="UTF-8"?>
<svg xmlns="http://www.w3.org/2000/svg" version="1.1" viewBox="0 0 100 100">
  <defs>
    <style>
      .cls-1 {
        fill: #ee453b;
      }
    </style>
  </defs>
  <!-- Generator: Adobe Illustrator 28.7.2, SVG Export Plug-In . SVG Version: 1.2.0 Build 154)  -->
  <g>
    <g id="Layer_1">
      <g id="Layer_1-2" data-name="Layer_1">
        <path class="cls-1" d="M86,13.3C68.9-3.9,41-3.9,23.9,13.3c-16.9,16.8-17.2,44-.8,61.2l19.3-40c.2-.6.8-.6,1.3-.2l11.2,11.2c.4.4.8.4,1.2,0l29.9-32.1Z"/>
        <path class="cls-1" d="M14.1,86.6c17.2,17.2,44.9,17.2,62.1,0,16.8-16.8,17.1-44,.8-61.2l-19.3,39.9c-.2.5-.8.6-1.3.2l-11.1-11.2c-.4-.4-.8-.4-1.2,0l-30,32.2Z"/>
      </g>
    </g>
  </g>
</svg>